<?xml version="1.0"?>
<svg xmlns="http://www.w3.org/2000/svg" width="512" height="512" viewBox="0 0 512 512"><path d="M456,264V240a8,8,0,0,0-8-8V200a16.021,16.021,0,0,0-16-16h-.7a185.458,185.458,0,0,0-63.37-90.05,184.039,184.039,0,0,0-223.86,0A185.458,185.458,0,0,0,80.7,184H80a16.021,16.021,0,0,0-16,16v32a8,8,0,0,0-8,8v24A48.051,48.051,0,0,0,8,312v96a48.051,48.051,0,0,0,48,48h56a8,8,0,0,0,8-8V432h4a28.031,28.031,0,0,0,28-28V316a28.031,28.031,0,0,0-28-28h-4V240a8,8,0,0,0-8-8h-8V192a8,8,0,0,0-6.48-7.85,169.516,169.516,0,0,1,56.29-77.51,168.053,168.053,0,0,1,204.38,0,169.516,169.516,0,0,1,56.29,77.51A8,8,0,0,0,408,192v40h-8a8,8,0,0,0-8,8v48h-4a28.031,28.031,0,0,0-28,28v88a28.031,28.031,0,0,0,28,28h4v16a8,8,0,0,0,8,8h56a48.051,48.051,0,0,0,48-48V312A48.051,48.051,0,0,0,456,264ZM120,304h4a12.01,12.01,0,0,1,12,12v88a12.01,12.01,0,0,1-12,12h-4ZM80,200h8v32H80Zm24,240H56a32.042,32.042,0,0,1-32-32V312a32.042,32.042,0,0,1,32-32h48Zm0-192v16H72V248ZM392,416h-4a12.01,12.01,0,0,1-12-12V316a12.01,12.01,0,0,1,12-12h4Zm32-216h8v32h-8Zm-16,48h32v16H408Zm80,160a32.042,32.042,0,0,1-32,32H408V280h48a32.042,32.042,0,0,1,32,32Z"/></svg>
