<svg width="30" height="30" viewBox="0 0 30 30" fill="none" xmlns="http://www.w3.org/2000/svg">
<path d="M29.9795 24.6919C29.8841 23.971 29.468 23.3495 28.8379 22.9867L21.4367 18.7254C20.5303 18.2035 19.3803 18.3554 18.6404 19.0953L17.1826 20.553C16.7947 20.941 16.181 20.9754 15.7553 20.6328C14.6061 19.7081 13.4745 18.6904 12.3922 17.6079C11.3098 16.5255 10.2921 15.3941 9.36725 14.2447C9.02469 13.8191 9.05896 13.2054 9.44701 12.8174L10.9047 11.3596C11.6446 10.6199 11.7967 9.47005 11.2747 8.56339L7.01336 1.16229C6.65051 0.53211 6.02901 0.116006 5.30812 0.0206303C4.58716 -0.0749401 3.87877 0.165509 3.36456 0.67971L1.16799 2.87634C-0.365098 4.40948 -0.38972 7.21387 1.09866 10.773C2.52982 14.1953 5.20062 17.9627 8.61895 21.3811C12.0374 24.7995 15.8048 27.4703 19.2271 28.9014C20.9791 29.634 22.548 30.0001 23.8726 30.0001C25.239 30.0001 26.3454 29.6105 27.1239 28.832L29.3204 26.6354C29.8346 26.1212 30.0748 25.4128 29.9795 24.6919V24.6919ZM20.9518 19.5677L28.3529 23.8289C28.719 24.0396 28.9606 24.4007 29.016 24.8194C29.0625 25.1707 28.9712 25.5167 28.7642 25.7955L18.9282 20.182L19.3277 19.7825C19.7573 19.3529 20.4253 19.2646 20.9518 19.5677V19.5677ZM5.1806 0.984174C5.59936 1.03957 5.96033 1.28125 6.17104 1.64727L10.4323 9.04837C10.7356 9.57495 10.6472 10.2428 10.2175 10.6724L9.85061 11.0393L4.20617 1.2359C4.4369 1.06504 4.71286 0.972252 5.00054 0.972252C5.06022 0.972252 5.12041 0.976205 5.1806 0.984174V0.984174ZM26.4365 28.1448C25.2185 29.3628 22.7275 29.3117 19.6021 28.0047C16.2937 26.6212 12.6373 24.0248 9.30628 20.6938C5.97523 17.3628 3.37882 13.7064 1.99534 10.3981C0.688254 7.27264 0.637262 4.78159 1.85526 3.56354L3.48592 1.93282L9.13885 11.7511L8.75975 12.1302C8.02013 12.8699 7.95572 14.0408 8.61001 14.8541C9.55658 16.0305 10.5979 17.1882 11.7048 18.2952C12.8119 19.4022 13.9696 20.4435 15.146 21.39C15.9591 22.0443 17.1301 21.98 17.8699 21.2402L18.2158 20.8944L28.0654 26.5158L26.4365 28.1448V28.1448Z"/>
</svg>
