<svg width="38" height="10" viewBox="0 0 38 10" fill="none" xmlns="http://www.w3.org/2000/svg">
<path d="M19 6.10352e-05C18.0303 6.10352e-05 17.0823 0.293306 16.2759 0.842714C15.4696 1.39212 14.8412 2.17301 14.47 3.08664C14.0989 4.00028 14.0018 5.00561 14.191 5.97551C14.3802 6.94542 14.8472 7.83633 15.5329 8.5356C16.2187 9.23486 17.0923 9.71106 18.0435 9.90399C18.9946 10.0969 19.9805 9.9979 20.8764 9.61946C21.7724 9.24102 22.5381 8.60016 23.0769 7.77791C23.6157 6.95567 23.9033 5.98897 23.9033 5.00006C23.9018 3.67444 23.3847 2.40353 22.4655 1.46617C21.5463 0.528813 20.3 0.00154985 19 6.10352e-05V6.10352e-05ZM19 8.75006C18.2727 8.75006 17.5617 8.53013 16.957 8.11808C16.3522 7.70602 15.8809 7.12035 15.6025 6.43513C15.3242 5.7499 15.2514 4.9959 15.3933 4.26847C15.5352 3.54104 15.8854 2.87286 16.3997 2.34841C16.914 1.82396 17.5693 1.46681 18.2826 1.32212C18.996 1.17742 19.7354 1.25168 20.4073 1.53551C21.0793 1.81934 21.6536 2.29999 22.0577 2.91667C22.4618 3.53336 22.6774 4.25838 22.6774 5.00006C22.6763 5.99428 22.2885 6.94744 21.5991 7.65046C20.9097 8.35347 19.975 8.74893 19 8.75006Z" />
<path d="M4.90323 6.10352e-05C3.93346 6.10352e-05 2.98547 0.293306 2.17914 0.842714C1.37281 1.39212 0.744352 2.17301 0.373238 3.08664C0.00212447 4.00028 -0.0949757 5.00561 0.0942163 5.97551C0.283408 6.94542 0.750395 7.83633 1.43612 8.5356C2.12185 9.23486 2.99552 9.71106 3.94666 9.90399C4.89779 10.0969 5.88366 9.9979 6.77961 9.61946C7.67556 9.24102 8.44134 8.60016 8.98011 7.77791C9.51888 6.95567 9.80645 5.98897 9.80645 5.00006C9.80499 3.67444 9.28794 2.40353 8.36872 1.46617C7.4495 0.528813 6.2032 0.00154985 4.90323 6.10352e-05V6.10352e-05ZM4.90323 8.75006C4.1759 8.75006 3.46491 8.53013 2.86016 8.11808C2.25541 7.70602 1.78407 7.12035 1.50574 6.43513C1.2274 5.7499 1.15458 4.9959 1.29647 4.26847C1.43836 3.54104 1.7886 2.87286 2.3029 2.34841C2.8172 1.82396 3.47245 1.46681 4.1858 1.32212C4.89915 1.17742 5.63855 1.25168 6.31052 1.53551C6.98248 1.81934 7.55681 2.29999 7.96089 2.91667C8.36497 3.53336 8.58065 4.25838 8.58065 5.00006C8.57953 5.99428 8.19173 6.94744 7.50232 7.65046C6.81292 8.35347 5.8782 8.74893 4.90323 8.75006V8.75006Z" />
<path d="M33.0968 6.10352e-05C32.1271 6.10352e-05 31.1791 0.293306 30.3727 0.842714C29.5664 1.39212 28.938 2.17301 28.5668 3.08664C28.1957 4.00028 28.0986 5.00561 28.2878 5.97551C28.477 6.94542 28.944 7.83633 29.6297 8.5356C30.3155 9.23486 31.1891 9.71106 32.1403 9.90399C33.0914 10.0969 34.0773 9.9979 34.9732 9.61946C35.8692 9.24102 36.6349 8.60016 37.1737 7.77791C37.7125 6.95567 38.0001 5.98897 38.0001 5.00006C37.9986 3.67444 37.4815 2.40353 36.5623 1.46617C35.6431 0.528813 34.3968 0.00154985 33.0968 6.10352e-05V6.10352e-05ZM33.0968 8.75006C32.3695 8.75006 31.6585 8.53013 31.0538 8.11808C30.449 7.70602 29.9777 7.12035 29.6993 6.43513C29.421 5.7499 29.3482 4.9959 29.4901 4.26847C29.632 3.54104 29.9822 2.87286 30.4965 2.34841C31.0108 1.82396 31.6661 1.46681 32.3794 1.32212C33.0928 1.17742 33.8322 1.25168 34.5041 1.53551C35.1761 1.81934 35.7504 2.29999 36.1545 2.91667C36.5586 3.53336 36.7743 4.25838 36.7743 5.00006C36.7731 5.99428 36.3853 6.94744 35.6959 7.65046C35.0065 8.35347 34.0718 8.74893 33.0968 8.75006Z" />
</svg>
