<svg width="90" height="85" viewBox="0 0 90 85" fill="none" xmlns="http://www.w3.org/2000/svg">
<path d="M79.8492 42.9636L70.0577 27.6806C69.2988 26.4961 68.0121 25.7888 66.6159 25.7888H23.4147C22.0205 25.7888 20.7351 26.4943 19.9759 27.6758L10.1539 42.9608C9.15019 44.5225 9.30523 46.5845 10.531 47.975L41.9364 83.6121C42.7137 84.4941 43.8296 85.0001 44.9981 85.0001C44.9983 85.0001 44.9981 85.0001 44.9983 85.0001C46.1667 85.0001 47.283 84.4943 48.0603 83.6123L79.4692 47.973C80.6932 46.5842 80.8494 44.5243 79.8492 42.9636ZM64.6324 29.342L56.3977 42.2124L48.1582 29.342H64.6324ZM53.1671 43.707H36.8292L44.9981 30.9469L53.1671 43.707ZM41.8381 29.3423L33.6212 42.1774L25.4071 29.3423H41.8381ZM22.1568 30.8055L30.4132 43.707H13.8664L22.1568 30.8055ZM14.6089 47.2604H32.3004L41.6548 77.9503L14.6089 47.2604ZM44.9981 76.8502L35.979 47.2604H54.0173L44.9981 76.8502ZM48.3413 77.9514L57.696 47.2606H75.3891L48.3413 77.9514ZM59.6284 43.707L67.8773 30.8143L76.1371 43.707H59.6284Z" fill="#E8B02C"/>
<path d="M5.33197 43.7069H1.75781C0.787149 43.7069 0 44.5023 0 45.4836C0 46.4649 0.787149 47.2603 1.75781 47.2603H5.33197C6.30264 47.2603 7.08979 46.4649 7.08979 45.4836C7.08979 44.5023 6.30264 43.7069 5.33197 43.7069Z" fill="#E8B02C"/>
<path d="M88.2423 43.7069H84.6681C83.6974 43.7069 82.9103 44.5023 82.9103 45.4836C82.9103 46.4649 83.6974 47.2603 84.6681 47.2603H88.2423C89.2129 47.2603 90.0001 46.4649 90.0001 45.4836C90.0001 44.5023 89.2129 43.7069 88.2423 43.7069Z" fill="#E8B02C"/>
<path d="M76.842 13.3312C76.1554 12.6374 75.0427 12.6374 74.3559 13.3312L68.517 19.2329C67.8306 19.9267 67.8306 21.0517 68.517 21.7455C68.8605 22.0925 69.3103 22.2659 69.7601 22.2659C70.2101 22.2659 70.6598 22.0923 71.0031 21.7455L76.842 15.8438C77.5285 15.15 77.5285 14.0252 76.842 13.3312Z" fill="#E8B02C"/>
<path d="M21.5588 19.2012L15.72 13.2993C15.0338 12.6055 13.9211 12.6055 13.2339 13.2993C12.5475 13.9931 12.5475 15.1181 13.2339 15.8119L19.0729 21.7136C19.4162 22.0606 19.866 22.234 20.3158 22.234C20.7656 22.234 21.2155 22.0604 21.5588 21.7136C22.2452 21.02 22.2452 19.8948 21.5588 19.2012Z" fill="#E8B02C"/>
<path d="M45.0447 0C44.074 0 43.2869 0.79543 43.2869 1.7767V13.3551C43.2869 14.3364 44.0738 15.1318 45.0447 15.1318C46.0153 15.1318 46.8025 14.3364 46.8025 13.3551V1.7767C46.8025 0.795608 46.0153 0 45.0447 0Z" fill="#E8B02C"/>
<path d="M46.2865 18.1094C45.9598 17.779 45.5062 17.5889 45.0439 17.5889C44.5816 17.5889 44.1281 17.779 43.8012 18.1094C43.4742 18.4399 43.2861 18.8983 43.2861 19.3656C43.2861 19.8346 43.474 20.2912 43.8012 20.6217C44.1281 20.9539 44.5816 21.1423 45.0439 21.1423C45.5062 21.1423 45.9598 20.9539 46.2865 20.6217C46.6153 20.2912 46.8018 19.8328 46.8018 19.3656C46.8018 18.8983 46.6153 18.4401 46.2865 18.1094Z" fill="#E8B02C"/>
</svg>
