<svg width="75" height="75" viewBox="0 0 75 75" fill="none" xmlns="http://www.w3.org/2000/svg">
<g style="mix-blend-mode:lighten">
<path d="M37.4984 0C16.7905 0 0 16.7905 0 37.4984C0 58.2063 16.7905 75 37.4984 75C58.2063 75 75 58.2063 75 37.4984C75 16.7905 58.2063 0 37.4984 0ZM45.3048 58.1175C43.3746 58.8794 41.8381 59.4571 40.6857 59.8571C39.5365 60.2571 38.2 60.4571 36.6794 60.4571C34.3429 60.4571 32.5238 59.8857 31.2286 58.746C29.9333 57.6063 29.2889 56.1619 29.2889 54.4064C29.2889 53.7238 29.3365 53.0254 29.4317 52.3143C29.5302 51.6032 29.6857 50.8032 29.8984 49.9048L32.3143 41.3714C32.527 40.5524 32.7111 39.7746 32.8571 39.0508C33.0032 38.3206 33.073 37.6508 33.073 37.0413C33.073 35.9556 32.8476 35.1937 32.4 34.7651C31.946 34.3365 31.0921 34.127 29.819 34.127C29.1968 34.127 28.5556 34.219 27.8984 34.4127C27.2476 34.6127 26.6825 34.7937 26.219 34.9714L26.8571 32.3429C28.4381 31.6984 29.9524 31.146 31.3968 30.6889C32.8413 30.2254 34.2064 29.9968 35.4921 29.9968C37.8127 29.9968 39.6032 30.5619 40.8635 31.6794C42.1175 32.8 42.7492 34.2571 42.7492 36.0476C42.7492 36.419 42.7048 37.073 42.619 38.0064C42.5333 38.9429 42.3714 39.7968 42.1365 40.581L39.7333 49.0889C39.5365 49.7714 39.3619 50.5524 39.2032 51.4254C39.0476 52.2984 38.9714 52.9651 38.9714 53.4127C38.9714 54.5429 39.2222 55.3143 39.7302 55.7238C40.2317 56.1333 41.1111 56.3397 42.3556 56.3397C42.9429 56.3397 43.6 56.2349 44.3429 56.0317C45.0794 55.8286 45.6127 55.6476 45.9492 55.4921L45.3048 58.1175ZM44.8794 23.5841C43.7587 24.6254 42.4095 25.146 40.8317 25.146C39.2571 25.146 37.8984 24.6254 36.7683 23.5841C35.6444 22.5429 35.0762 21.2762 35.0762 19.7968C35.0762 18.3206 35.6476 17.0508 36.7683 16C37.8984 14.946 39.2571 14.4222 40.8317 14.4222C42.4095 14.4222 43.7619 14.946 44.8794 16C46 17.0508 46.5619 18.3206 46.5619 19.7968C46.5619 21.2794 46 22.5429 44.8794 23.5841Z" fill="#E8B02C"/>
</g>
</svg>
