<svg width="67" height="80" viewBox="0 0 67 80" fill="none" xmlns="http://www.w3.org/2000/svg">
<path d="M33.3352 0C20.4685 0 10.0018 10.4667 10.0018 23.3333C10.0018 36.2 20.4685 46.6667 33.3352 46.6667C46.2018 46.6667 56.6685 36.2 56.6685 23.3333C56.6685 10.4667 46.2018 0 33.3352 0ZM45.9585 22.5233L41.4218 27.1733L42.4985 33.7667C42.6518 34.71 42.2552 35.66 41.4685 36.2133C41.0418 36.5133 40.5352 36.6667 40.0318 36.6667C39.6152 36.6667 39.1985 36.5633 38.8218 36.3533L33.3352 33.3233L27.8485 36.3567C27.0118 36.82 25.9785 36.7667 25.1985 36.2133C24.4152 35.66 24.0185 34.71 24.1685 33.7667L25.2452 27.1733L20.7118 22.5233C20.0585 21.8533 19.8318 20.87 20.1318 19.9833C20.4285 19.0933 21.1952 18.45 22.1252 18.3067L28.2952 17.3633L31.0752 11.44C31.8952 9.68333 34.7785 9.68333 35.5985 11.44L38.3785 17.3633L44.5485 18.3067C45.4752 18.4467 46.2452 19.0933 46.5418 19.9833C46.8385 20.87 46.6118 21.8533 45.9585 22.5233Z" fill="#E8B02C"/>
<path d="M13.2018 43.2667L0.301786 66.4333C-0.131548 67.2333 -0.0982144 68.2333 0.401786 69C0.901786 69.7667 1.76845 70.2333 2.70179 70.1333L12.9685 69.3667L17.5018 78.6C17.9351 79.4333 18.7685 79.9667 19.6685 80H19.7351C20.6351 80 21.5018 79.5 21.9351 78.7333L30.3351 63.8L22.1685 49.3667C18.8018 47.9333 15.7685 45.8333 13.2018 43.2667Z" fill="#E8B02C"/>
<path d="M66.3351 66.4333L53.3351 43.4C49.1018 47.6333 43.5351 50.5 37.3352 51.3667C36.0352 51.5667 34.7018 51.6667 33.3352 51.6667C31.8685 51.6667 30.4352 51.5667 29.0352 51.3333L33.2018 58.7L44.5018 78.7333C44.9351 79.5 45.7685 80 46.6685 80H46.7351C47.6685 79.9667 48.5018 79.4333 48.9351 78.6L53.5018 69.3667L63.9685 70.1667C64.9018 70.2333 65.7685 69.8 66.2685 69C66.7685 68.2333 66.8018 67.2333 66.3351 66.4333Z" fill="#E8B02C"/>
</svg>
