<svg width="40" height="40" viewBox="0 0 40 40" fill="none" xmlns="http://www.w3.org/2000/svg">
<path d="M13.0312 35.0172C27.1829 35.0172 34.9219 23.2929 34.9219 13.1265C34.9219 12.7935 34.915 12.4619 34.9001 12.1321C36.4022 11.046 37.7077 9.6907 38.7379 8.148C37.3594 8.761 35.8756 9.1731 34.3196 9.35955C35.908 8.40668 37.1275 6.89999 37.7027 5.10388C36.2162 5.9852 34.5698 6.62548 32.8173 6.97131C31.4133 5.47585 29.4143 4.54065 27.201 4.54065C22.9525 4.54065 19.5068 7.98609 19.5068 12.2333C19.5068 12.8373 19.5744 13.4244 19.7063 13.9876C13.3119 13.6659 7.64152 10.6046 3.84727 5.94919C3.1868 7.08598 2.80566 8.40691 2.80566 9.81637C2.80566 12.4853 4.16397 14.8421 6.22931 16.2204C4.96709 16.1816 3.78145 15.8351 2.74488 15.2584C2.74374 15.2907 2.74374 15.3221 2.74374 15.3565C2.74374 19.0827 5.3957 22.1937 8.91659 22.8987C8.26989 23.0746 7.58947 23.1693 6.88772 23.1693C6.39283 23.1693 5.91032 23.1207 5.44157 23.0306C6.42103 26.0875 9.26151 28.312 12.629 28.3744C9.99559 30.4384 6.67834 31.6678 3.07305 31.6678C2.45295 31.6678 1.83995 31.6322 1.23773 31.5612C4.64281 33.7437 8.68612 35.0174 13.0315 35.0174" fill="#C9C9C9"/>
</svg>
