<svg width="40" height="40" viewBox="0 0 40 40" fill="none" xmlns="http://www.w3.org/2000/svg">
<g clip-path="url(#clip0)">
<path d="M20.0067 9.7301C14.335 9.7301 9.74335 14.3268 9.74335 19.9934C9.74335 25.6651 14.34 30.2568 20.0067 30.2568C25.6784 30.2568 30.27 25.6601 30.27 19.9934C30.27 14.3218 25.6734 9.7301 20.0067 9.7301ZM20.0067 26.6551C16.325 26.6551 13.345 23.6734 13.345 19.9934C13.345 16.3134 16.3267 13.3318 20.0067 13.3318C23.6867 13.3318 26.6684 16.3134 26.6684 19.9934C26.67 23.6734 23.6884 26.6551 20.0067 26.6551Z" fill="#C9C9C9"/>
<path d="M28.2466 0.126987C24.5666 -0.0446795 15.4516 -0.0363461 11.7682 0.126987C8.53156 0.278654 5.67656 1.06032 3.37489 3.36199C-0.471776 7.20865 0.0198905 12.392 0.0198905 19.9937C0.0198905 27.7737 -0.413443 32.837 3.37489 36.6253C7.23656 40.4853 12.4949 39.9803 20.0066 39.9803C27.7132 39.9803 30.3732 39.9853 33.0982 38.9303C36.8032 37.492 39.5999 34.1803 39.8732 28.232C40.0466 24.5503 40.0366 15.437 39.8732 11.7537C39.5432 4.73199 35.7749 0.473654 28.2466 0.126987ZM34.0716 34.0803C31.5499 36.602 28.0516 36.377 19.9582 36.377C11.6249 36.377 8.28322 36.5003 5.84489 34.0553C3.03656 31.2603 3.54489 26.772 3.54489 19.967C3.54489 10.7587 2.59989 4.12699 11.8416 3.65365C13.9649 3.57865 14.5899 3.55365 19.9349 3.55365L20.0099 3.60365C28.8916 3.60365 35.8599 2.67365 36.2782 11.9137C36.3732 14.022 36.3949 14.6553 36.3949 19.992C36.3932 28.2287 36.5499 31.5903 34.0716 34.0803Z" fill="#C9C9C9"/>
<path d="M30.6767 11.7233C32.0012 11.7233 33.075 10.6495 33.075 9.32497C33.075 8.0004 32.0012 6.92664 30.6767 6.92664C29.3521 6.92664 28.2783 8.0004 28.2783 9.32497C28.2783 10.6495 29.3521 11.7233 30.6767 11.7233Z" fill="#C9C9C9"/>
</g>
<defs>
<clipPath id="clip0">
<rect width="40" height="40" fill="white"/>
</clipPath>
</defs>
</svg>
